<svg width="545" height="410" viewBox="0 0 545 410" fill="none" xmlns="http://www.w3.org/2000/svg">
<g opacity="0.3">
<path d="M483 410V328L552 410H483Z" fill="#198EB0" fill-opacity="0.25"/>
<path d="M345 164V82L414 164H345Z" fill="#198EB0" fill-opacity="0.25"/>
<path d="M207 328V246L276 328H207Z" fill="#198EB0" fill-opacity="0.25"/>
<path d="M414 328V246L483 328H414Z" fill="#198EB0" fill-opacity="0.5"/>
<path d="M276 82V0L345 82H276Z" fill="#198EB0" fill-opacity="0.5"/>
<path d="M138 246V164L207 246H138Z" fill="#198EB0" fill-opacity="0.5"/>
<path d="M483 328V246L552 328H483Z" fill="#198EB0" fill-opacity="0.5"/>
<path d="M345 82V0L414 82H345Z" fill="#198EB0" fill-opacity="0.5"/>
<path d="M207 246V164L276 246H207Z" fill="#198EB0" fill-opacity="0.5"/>
<path d="M414 410V328L483 410H414Z" fill="#198EB0" fill-opacity="0.25"/>
<path d="M276 164V82L345 164H276Z" fill="#198EB0" fill-opacity="0.25"/>
<path d="M138 328V246L207 328H138Z" fill="#198EB0" fill-opacity="0.25"/>
<path d="M345 410V328L414 410H345Z" fill="#198EB0" fill-opacity="0.5"/>
<path d="M207 164V82L276 164H207Z" fill="#198EB0" fill-opacity="0.5"/>
<path d="M69 328V246L138 328H69Z" fill="#198EB0" fill-opacity="0.5"/>
<path d="M276 410V328L345 410H276Z" fill="#198EB0" fill-opacity="0.75"/>
<path d="M138 164V82L207 164H138Z" fill="#198EB0" fill-opacity="0.75"/>
<path d="M0 328V246L69 328H0Z" fill="#198EB0" fill-opacity="0.75"/>
<path d="M345 328V246L414 328H345Z" fill="#198EB0" fill-opacity="0.75"/>
<path d="M207 82V0L276 82H207Z" fill="#198EB0" fill-opacity="0.75"/>
<path d="M69 246V164L138 246H69Z" fill="#198EB0" fill-opacity="0.75"/>
<path d="M414 246V164L483 246H414Z" fill="#198EB0" fill-opacity="0.75"/>
<path d="M483 246V164L552 246H483Z" fill="#198EB0" fill-opacity="0.5"/>
<path d="M483 164V82L552 164H483Z" fill="#198EB0" fill-opacity="0.75"/>
</g>
</svg>
